<svg xmlns="http://www.w3.org/2000/svg" viewBox="0 0 32 32" id="cake"><path d="M29 26.5h-1v-12a2 2 0 0 0-2-2h-2v-4a1 1 0 0 0-1-1h-4a1 1 0 0 0-1 1v4h-4v-4a1 1 0 0 0-1-1H9a1 1 0 0 0-1 1v4H6a2 2 0 0 0-2 2v12H3a1 1 0 0 0 0 2h26a1 1 0 0 0 0-2zm-9-17h2v3h-2zm-10 0h2v3h-2zm-1 5h17v3.33a12.91 12.91 0 0 0-1 1c-.9 1.05-1.46 1.65-2.64 1.65s-1.74-.6-2.64-1.65a5.2 5.2 0 0 0-4.16-2.35 5.2 5.2 0 0 0-4.16 2.35c-.86 1.08-1.4 1.67-2.6 1.67s-1.74-.6-2.64-1.65L6 18.67V14.5zm-3 12v-5a4.34 4.34 0 0 0 2.8 1 5.19 5.19 0 0 0 4.2-2.35c.89-1.05 1.46-1.65 2.64-1.65s1.74.6 2.64 1.65a5.2 5.2 0 0 0 4.16 2.35A4.67 4.67 0 0 0 26 20.78v5.72zm5-20a1 1 0 0 0 1-1v-1a1 1 0 0 0-2 0v1a1 1 0 0 0 1 1zm10 0a1 1 0 0 0 1-1v-1a1 1 0 0 0-2 0v1a1 1 0 0 0 1 1z" data-name="Cake copy"></path></svg>