<svg xmlns="http://www.w3.org/2000/svg" enable-background="new 0 0 62 62" viewBox="0 0 62 62" id="confetti"><path d="M38.8,36.4c-0.3-0.5-1-0.7-1.5-0.4s-0.7,1-0.4,1.5c2.1,3.7,2.8,6.8,1.6,8c-0.3,0.3-0.8,0.5-1.4,0.6c-0.1,0-0.3,0-0.4,0
		h-0.2c-0.2,0-0.3,0-0.5,0h0c-1.5-0.2-3.4-0.9-5.7-2.2c-0.1,0-0.1-0.1-0.2-0.1c-0.2-0.1-0.4-0.2-0.6-0.4c-0.2-0.1-0.4-0.3-0.6-0.4
		c-0.1-0.1-0.2-0.1-0.2-0.2c-0.3-0.2-0.6-0.4-0.9-0.6l0,0c-0.6-0.5-1.3-1-2-1.5l0,0c-0.3-0.3-0.6-0.5-0.9-0.8
		c-0.1-0.1-0.1-0.1-0.2-0.2c-0.3-0.2-0.5-0.5-0.8-0.7c-0.2-0.2-0.5-0.4-0.7-0.7c-0.1-0.1-0.2-0.2-0.3-0.3c-2.5-2.5-4.4-5-5.8-7.2
		c-1.9-3.1-2.7-5.7-2.5-7.2c0.1-0.6,0.2-1,0.6-1.4c1.2-1.2,4.3-0.5,8,1.6c0.5,0.3,1.2,0.1,1.5-0.4s0.1-1.2-0.4-1.5
		c-4.8-2.8-8.6-3.2-10.6-1.3c-0.6,0.6-1,1.5-1.1,2.5L7.9,34.7l-7.6,20c-0.5,1.4-0.3,2.8,0.5,4s2.1,1.9,3.6,1.9c0.5,0,1-0.1,1.6-0.3
		l5.9-2.2l0,0l14-5.3l0,0l11.8-4.5c1-0.1,1.8-0.5,2.5-1.1C42,45,41.6,41.2,38.8,36.4z M5.1,58.2c-1,0.4-2,0-2.6-0.8
		c-0.2-0.3-0.6-1.1-0.2-2l2.7-7c1.1,2.8,2.7,5.5,4.6,8.1L5.1,58.2z M18.5,53.1c-5-5.4-7.9-11.4-8.5-17.8l2.6-6.7
		C12.7,35,15,43.3,23.3,51.3L18.5,53.1z"></path><path d="M43.9 27.6c-11.7 4.9-12.6 12.5-12.6 12.8-.1.6.4 1.1 1 1.2h.1c.6 0 1-.4 1.1-1 0-.1.7-6.6 11.3-11 .6-.2.8-.9.6-1.4C45.1 27.7 44.5 27.4 43.9 27.6zM18.9 28.2c.1.6.5 1 1.1 1h.1c.3 0 8-.9 12.8-12.6.2-.6 0-1.2-.6-1.4-.6-.2-1.2 0-1.4.6C26.6 26.2 20.2 27 19.9 27 19.3 27.1 18.9 27.6 18.9 28.2zM27 8.2l1.6.5-.5 1.6c-.2.6.1 1.2.7 1.4.1 0 .2.1.3.1.5 0 .9-.3 1-.8l.5-1.6 1.6.5c.1 0 .2.1.3.1.5 0 .9-.3 1-.8.2-.6-.1-1.2-.7-1.4l-1.6-.5.5-1.6c.2-.6-.1-1.2-.7-1.4-.6-.2-1.2.1-1.4.7l-.5 1.6-1.6-.5c-.6-.2-1.2.1-1.4.7C26.1 7.4 26.4 8 27 8.2zM41.4 12.4l.6.2c.3.1.6.4.7.7l.2.6c.4 1.4 1.7 2.3 3.1 2.3 1.1 0 2-.5 2.6-1.4l.4-.5c.2-.3.5-.5.9-.5h.7c1.2 0 2.3-.7 2.9-1.8.6-1.1.4-2.4-.3-3.4l-.4-.5c-.2-.3-.3-.6-.2-1l.2-.6c.3-1 .2-2.1-.4-2.9-.8-1.2-2.3-1.7-3.7-1.2l-.6.2c-.3.1-.7.1-1-.2L46.6 2c-1.3-1-3.1-.8-4.2.3-.6.6-.9 1.4-.9 2.3v.6c0 .4-.2.7-.4.9l-.5.4c-1 .7-1.5 1.9-1.3 3.1C39.3 11 40.2 12 41.4 12.4zM61.3 25.4l-.2-.2c-.2-.3-.3-.6-.1-1l.1-.2c.3-1 .2-2.1-.4-2.9-.8-1.2-2.3-1.7-3.7-1.2L56.8 20c-.3.1-.7.1-1-.2l-.2-.2c-1.3-1-3.2-.8-4.3.3-.6.6-.9 1.4-.9 2.3v.2c0 .4-.2.7-.5.9l-.2.2c-1 .7-1.5 1.9-1.3 3.2.2 1.2 1.1 2.2 2.2 2.6l.3.1c.3.1.6.4.7.7l.1.3c.4 1.4 1.7 2.3 3.1 2.3 1.1 0 2-.5 2.6-1.4l.2-.2c.2-.3.5-.4.9-.4h.3c1.2 0 2.3-.7 2.9-1.8C62.2 27.7 62.1 26.4 61.3 25.4zM26.4 33.1c-.3.5-.2 1.2.3 1.5.2.1.4.2.6.2.3 0 .7-.2.9-.5.1-.1 9.1-12.7 18.7-13.7.6-.1 1-.6 1-1.2-.1-.6-.6-1-1.2-1C36.1 19.6 26.8 32.6 26.4 33.1zM52.3 36.2l-1.6-.5.5-1.6c.2-.6-.1-1.2-.7-1.4-.6-.2-1.2.1-1.4.7L48.6 35 47 34.5c-.6-.2-1.2.1-1.4.7-.2.6.1 1.2.7 1.4l1.6.5-.5 1.6c-.2.6.1 1.2.7 1.4.1 0 .2 0 .3 0 .5 0 .9-.3 1-.8l.5-1.6 1.6.5c.1 0 .2 0 .3 0 .5 0 .9-.3 1-.8C53.2 36.9 52.9 36.3 52.3 36.2z"></path></svg>