<svg xmlns="http://www.w3.org/2000/svg" viewBox="0 0 24 24" id="drone-camera"><path d="M19.78,17.85a5.17,5.17,0,0,0-1.77.66c-.17.1-.33.22-.5.33l-1.39-1.39a3,3,0,0,0,.62-1.82V8.41a2.9,2.9,0,0,0-.41-1.49l1.18-1.18c.17.12.33.24.5.34a5,5,0,0,0,1.77.65A5,5,0,0,0,19.12,5c-.1-.17-.22-.33-.33-.5l.06-.06a1,1,0,0,0,0-1.41,1,1,0,0,0-1.42,0l0,0a6.45,6.45,0,0,0-.69-.47A5,5,0,0,0,15,1.91a5,5,0,0,0,.65,1.76,6.45,6.45,0,0,0,.47.69L14.82,5.61a3,3,0,0,0-1.08-.2H10.26a3,3,0,0,0-1.08.2L7.93,4.36a6.45,6.45,0,0,0,.47-.69,5,5,0,0,0,.65-1.76,5,5,0,0,0-1.76.65A6.45,6.45,0,0,0,6.6,3l0,0A1,1,0,0,0,5.15,3a1,1,0,0,0,0,1.41l.06.06c-.11.17-.23.33-.33.5a5,5,0,0,0-.66,1.76A5,5,0,0,0,6,6.08c.17-.1.33-.22.5-.34L7.67,6.92a2.9,2.9,0,0,0-.41,1.49v7.22a3,3,0,0,0,.62,1.82L6.49,18.84c-.17-.11-.33-.23-.5-.33a5.17,5.17,0,0,0-1.77-.66,5,5,0,0,0,.66,1.77c.1.17.22.33.33.5l-.06.06a1,1,0,0,0,0,1.41,1,1,0,0,0,1.42,0l0,0a6.45,6.45,0,0,0,.69.47,5,5,0,0,0,1.76.65,5,5,0,0,0-.65-1.76,6.45,6.45,0,0,0-.47-.69L9.6,18.55a2.84,2.84,0,0,0,.66.08h3.48a2.84,2.84,0,0,0,.66-.08l1.67,1.68a6.45,6.45,0,0,0-.47.69A5,5,0,0,0,15,22.68,5,5,0,0,0,16.71,22a6.45,6.45,0,0,0,.69-.47l0,0a1,1,0,0,0,1.42,0,1,1,0,0,0,0-1.41l-.06-.06c.11-.17.23-.33.33-.5A5,5,0,0,0,19.78,17.85Zm-9.52-1.22a1,1,0,0,1-1-1V8.41a1,1,0,0,1,1-1h3.48a1,1,0,0,1,1,1v7.22a1,1,0,0,1-1,1Z" data-name="drone 19"></path></svg>